<svg id="Layer_6" data-name="Layer 6" xmlns="http://www.w3.org/2000/svg" viewBox="0 0 90 60"><defs><style>.cls-1{fill:#dc5c5c;}.cls-2{fill:#fff;}</style></defs><rect class="cls-1" x="31" y="31" width="28" height="28"/><path class="cls-2" d="M58,32V58H32V32H58m2-2H30V60H60V30Z" transform="translate(0 0)"/><rect class="cls-1" x="31" y="1" width="28" height="28"/><path class="cls-2" d="M58,2V28H32V2H58m2-2H30V30H60V0Z" transform="translate(0 0)"/><rect class="cls-1" x="1" y="1" width="28" height="28"/><path class="cls-2" d="M28,2V28H2V2H28m2-2H0V30H30V0Z" transform="translate(0 0)"/><rect class="cls-1" x="61" y="1" width="28" height="28"/><path class="cls-2" d="M88,2V28H62V2H88m2-2H60V30H90V0Z" transform="translate(0 0)"/></svg>